<svg width="40" height="40" viewBox="0 0 40 40" fill="none" xmlns="http://www.w3.org/2000/svg">
<path d="M23.5499 18.8999C24.1999 16.1666 21.8166 13.7832 19.0832 14.4332C17.7999 14.7499 16.7499 15.7999 16.4332 17.0832C15.7832 19.8166 18.1666 22.1999 20.8999 21.5499C22.1999 21.2332 23.2499 20.1832 23.5499 18.8999Z" fill="white"/>
<path d="M10.0334 29.9499C9.73343 29.9499 9.41676 29.8333 9.18343 29.6166C5.9501 26.6166 4.1001 22.3833 4.1001 17.9833C4.1001 9.21658 11.2334 2.08325 20.0001 2.08325C28.7668 2.08325 35.9001 9.21658 35.9001 17.9833C35.9001 22.4166 34.1168 26.5166 30.8834 29.5666C30.3834 30.0333 29.5834 30.0166 29.1168 29.5166C28.6501 29.0166 28.6668 28.2166 29.1668 27.7499C31.9001 25.1833 33.4001 21.7333 33.4001 17.9999C33.4001 10.6166 27.3834 4.59992 20.0001 4.59992C12.6168 4.59992 6.6001 10.6166 6.6001 17.9999C6.6001 21.7666 8.11676 25.2333 10.8834 27.7999C11.3834 28.2666 11.4168 29.0666 10.9501 29.5666C10.7001 29.8166 10.3668 29.9499 10.0334 29.9499Z" fill="white"/>
<path d="M26.6667 25.5001C26.3667 25.5001 26.05 25.3834 25.8167 25.1668C25.3167 24.7001 25.2834 23.9001 25.7667 23.4001C27.15 21.9334 27.9167 20.0001 27.9167 18.0001C27.9167 13.6334 24.3667 10.1001 20.0167 10.1001C15.6667 10.1001 12.1167 13.6501 12.1167 18.0001C12.1167 20.0168 12.8834 21.9334 14.2667 23.4001C14.7334 23.9001 14.7167 24.7001 14.2167 25.1668C13.7167 25.6501 12.9167 25.6168 12.45 25.1168C10.6334 23.1834 9.6167 20.6501 9.6167 18.0001C9.6167 12.2668 14.2834 7.6001 20.0167 7.6001C25.75 7.6001 30.4167 12.2668 30.4167 18.0001C30.4167 20.6501 29.4167 23.1834 27.5834 25.1168C27.3334 25.3668 27 25.5001 26.6667 25.5001Z" fill="white"/>
<path d="M17.1666 27.7667L14.7666 30.75C12.8666 33.1333 14.5666 36.6667 17.5999 36.6667H22.3832C25.4332 36.6667 27.1332 33.1333 25.2166 30.7667L22.8166 27.7833C21.3832 25.95 18.6166 25.95 17.1666 27.7667Z" fill="white"/>
</svg>
