<svg width="54" height="39" viewBox="0 0 54 39" fill="none" xmlns="http://www.w3.org/2000/svg">
<ellipse cx="19" cy="19.0339" rx="16" ry="16.0085" fill="#F1AB24"/>
<path d="M19 36.5424C28.6657 36.5424 36.5 28.7028 36.5 19.0339C36.5 9.36497 28.6657 1.52539 19 1.52539C9.33426 1.52539 1.5 9.36497 1.5 19.0339C1.5 28.7028 9.33426 36.5424 19 36.5424Z" stroke="white" stroke-opacity="0.3" stroke-width="3"/>
<path fill-rule="evenodd" clip-rule="evenodd" d="M46.9303 12.2716L53.0397 18.3842C53.4146 18.7593 53.4146 19.3675 53.0397 19.7426L46.9303 25.8552C46.5554 26.2303 45.9475 26.2303 45.5726 25.8552C45.1977 25.4801 45.1977 24.872 45.5726 24.4969L50.0432 20.0239H21.3214C20.7909 20.0239 20.3608 19.5939 20.3608 19.0634V19.0634C20.3608 18.5329 20.7909 18.1029 21.3213 18.1029H50.0432L45.5726 13.6299C45.1977 13.2548 45.1977 12.6467 45.5726 12.2716C45.9475 11.8965 46.5554 11.8965 46.9303 12.2716Z" fill="#F1AB24"/>
<path d="M34.9688 20.0236H21.3214C20.7909 20.0236 20.3608 19.5935 20.3608 19.0631C20.3608 18.5326 20.7909 18.1025 21.3214 18.1025H34.9688V20.0236Z" fill="white"/>
</svg>
