<svg width="25" height="25" viewBox="0 0 25 25" fill="none" xmlns="http://www.w3.org/2000/svg">
<g clip-path="url(#clip0_495_1648)">
<path d="M13.6038 8.448L15.0778 9.92195C15.755 10.5991 16.2921 11.4029 16.6586 12.2876C17.0251 13.1723 17.2137 14.1206 17.2137 15.0782C17.2137 16.0358 17.0251 16.9841 16.6586 17.8688C16.2921 18.7535 15.755 19.5574 15.0778 20.2345L14.709 20.6022C13.3415 21.9697 11.4867 22.738 9.55278 22.738C7.61881 22.738 5.76405 21.9697 4.39653 20.6022C3.02901 19.2346 2.26074 17.3799 2.26074 15.4459C2.26074 13.5119 3.02901 11.6572 4.39653 10.2897L5.87049 11.7636C5.38337 12.2465 4.99643 12.8208 4.73187 13.4536C4.46731 14.0864 4.33035 14.7653 4.32885 15.4512C4.32735 16.137 4.46134 16.8165 4.72312 17.4504C4.9849 18.0844 5.36933 18.6604 5.85433 19.1454C6.33932 19.6304 6.91533 20.0148 7.5493 20.2766C8.18326 20.5384 8.86269 20.6724 9.54858 20.6709C10.2345 20.6694 10.9133 20.5324 11.5461 20.2679C12.1789 20.0033 12.7532 19.6164 13.2361 19.1292L13.6049 18.7605C14.5813 17.7838 15.1298 16.4593 15.1298 15.0782C15.1298 13.6971 14.5813 12.3726 13.6049 11.3959L12.1309 9.92195L13.6049 8.44904L13.6038 8.448ZM20.6017 14.7095L19.1288 13.2365C19.6159 12.7537 20.0029 12.1793 20.2674 11.5465C20.532 10.9137 20.669 10.2349 20.6705 9.549C20.672 8.86312 20.538 8.18369 20.2762 7.54972C20.0144 6.91576 19.63 6.33974 19.145 5.85475C18.66 5.36975 18.084 4.98533 17.45 4.72354C16.816 4.46176 16.1366 4.32777 15.4507 4.32928C14.7648 4.33078 14.086 4.46774 13.4532 4.7323C12.8204 4.99685 12.2461 5.3838 11.7632 5.87091L11.3944 6.23966C10.418 7.21637 9.86952 8.54089 9.86952 9.92195C9.86952 11.303 10.418 12.6275 11.3944 13.6042L12.8684 15.0782L11.3944 16.5511L9.92153 15.0782C9.24436 14.4011 8.70719 13.5972 8.3407 12.7125C7.97422 11.8278 7.78559 10.8796 7.78559 9.92195C7.78559 8.96434 7.97422 8.0161 8.3407 7.13138C8.70719 6.24667 9.24436 5.44281 9.92153 4.7657L10.2903 4.398C11.6578 3.03047 13.5126 2.26221 15.4465 2.26221C17.3805 2.26221 19.2353 3.03047 20.6028 4.398C21.9703 5.76552 22.7386 7.62028 22.7386 9.55425C22.7386 11.4882 21.9703 13.343 20.6028 14.7105L20.6017 14.7095Z" fill="#828BA3"/>
</g>
<defs>
<clipPath id="clip0_495_1648">
<rect width="25" height="25" fill="white"/>
</clipPath>
</defs>
</svg>
