<svg width="19" height="5" viewBox="0 0 19 5" fill="none" xmlns="http://www.w3.org/2000/svg">
<path d="M2.20833 0.416504C1.0625 0.416504 0.125 1.354 0.125 2.49984C0.125 3.64567 1.0625 4.58317 2.20833 4.58317C3.35417 4.58317 4.29167 3.64567 4.29167 2.49984C4.29167 1.354 3.35417 0.416504 2.20833 0.416504ZM16.7917 0.416504C15.6458 0.416504 14.7083 1.354 14.7083 2.49984C14.7083 3.64567 15.6458 4.58317 16.7917 4.58317C17.9375 4.58317 18.875 3.64567 18.875 2.49984C18.875 1.354 17.9375 0.416504 16.7917 0.416504ZM9.5 0.416504C8.35417 0.416504 7.41667 1.354 7.41667 2.49984C7.41667 3.64567 8.35417 4.58317 9.5 4.58317C10.6458 4.58317 11.5833 3.64567 11.5833 2.49984C11.5833 1.354 10.6458 0.416504 9.5 0.416504Z" fill="#828BA3"/>
</svg>
