<svg width="25" height="25" viewBox="0 0 25 25" fill="none" xmlns="http://www.w3.org/2000/svg">
<g clip-path="url(#clip0_492_1165)">
<path d="M1.44789 9.84619L0.0467183 14.1513C-0.080186 14.5422 0.0568746 14.9737 0.391933 15.2174L12.4999 24.0154L8.62465 16.4051L1.44789 9.84619Z" fill="#FFA100"/>
<path d="M23.5521 9.84619L24.9532 14.1513C25.0801 14.5422 24.9431 14.9737 24.608 15.2174L12.5 24.0153L16.7584 14.9893L23.5521 9.84619Z" fill="#FFA100"/>
<path d="M12.5003 24.0155L12.5003 15.2948L7.8957 9.84629L4.67451 8.24365L1.44824 9.84629L12.5003 24.0155Z" fill="#FF6D18"/>
<path d="M12.5 24.0155L12.5 14.7673L17.1046 9.84629L20.5894 8.24365L23.5521 9.84629L12.5 24.0155Z" fill="#FF6D18"/>
<path d="M12.5001 24.0154L17.1047 9.84619H7.89551L12.5001 24.0154Z" fill="#FC3819"/>
<path d="M1.44824 9.84631H7.90078L5.12378 1.31233C4.98164 0.875708 4.36226 0.875708 4.21504 1.31233L1.44824 9.84631Z" fill="#FC3819"/>
<path d="M23.5521 9.84631H17.0996L19.8715 1.31233C20.0137 0.875708 20.6331 0.875708 20.7803 1.31233L23.5521 9.84631Z" fill="#FC3819"/>
</g>
<defs>
<clipPath id="clip0_492_1165">
<rect width="25" height="25" fill="white"/>
</clipPath>
</defs>
</svg>
