<svg width="25" height="25" viewBox="0 0 25 25" fill="none" xmlns="http://www.w3.org/2000/svg">
<g clip-path="url(#clip0_491_1118)">
<path d="M3.19134 7.82284C4.05802 6.09705 5.38756 4.64629 7.03138 3.6327C8.67519 2.61911 10.5685 2.08264 12.4997 2.08325C15.307 2.08325 17.6653 3.1145 19.4684 4.79679L16.482 7.78429C15.4018 6.752 14.0288 6.22596 12.4997 6.22596C9.78613 6.22596 7.48926 8.0593 6.67155 10.5208C6.46322 11.1458 6.34447 11.8124 6.34447 12.4999C6.34447 13.1874 6.46322 13.8541 6.67155 14.4791C7.4903 16.9416 9.78613 18.7739 12.4997 18.7739C13.9007 18.7739 15.0934 18.4041 16.0268 17.7791C16.5678 17.4228 17.0311 16.9606 17.3884 16.4202C17.7458 15.8799 17.9899 15.2727 18.1059 14.6353H12.4997V10.6062H22.3101C22.433 11.2874 22.4997 11.9978 22.4997 12.7364C22.4997 15.9093 21.3643 18.5801 19.3934 20.3926C17.6705 21.9843 15.3122 22.9166 12.4997 22.9166C11.1316 22.9171 9.7768 22.6481 8.51274 22.1248C7.24869 21.6015 6.10014 20.8342 5.13276 19.8668C4.16537 18.8995 3.39811 17.7509 2.87481 16.4869C2.35152 15.2228 2.08246 13.868 2.08301 12.4999C2.08301 10.8187 2.48509 9.22909 3.19134 7.82284Z" fill="#D7553E"/>
</g>
<defs>
<clipPath id="clip0_491_1118">
<rect width="25" height="25" fill="white"/>
</clipPath>
</defs>
</svg>
