<svg width="3161" height="1161" viewBox="0 0 3161 1161" fill="none" xmlns="http://www.w3.org/2000/svg">
<g opacity="0.06">
<mask id="mask0_725_495" style="mask-type:alpha" maskUnits="userSpaceOnUse" x="0" y="182" width="1920" height="934">
<rect y="182" width="1920" height="934" fill="url(#paint0_linear_725_495)"/>
</mask>
<g mask="url(#mask0_725_495)">
</g>
<g style="mix-blend-mode:hard-light" clip-path="url(#clip0_725_495)">
<path d="M692.115 947.354C692.795 947.347 693.456 947.129 694.008 946.732C694.56 946.334 694.976 945.776 695.199 945.133H757.06L784.136 918.329H1291.21L1498.45 1125.57H1718.6L1876.49 967.68H2139.24L2293.06 1121.5H2604.83L2690.63 1035.78H3012.64L3038.67 1009.72H3176.36L3196.1 989.981C3196.7 990.282 3197.39 990.385 3198.06 990.274C3198.73 990.163 3199.35 989.845 3199.83 989.364C3200.26 988.937 3200.56 988.401 3200.71 987.813C3200.85 987.226 3200.83 986.609 3200.65 986.032C3200.47 985.454 3200.13 984.938 3199.68 984.539C3199.22 984.14 3198.67 983.874 3198.07 983.77C3197.47 983.666 3196.86 983.728 3196.3 983.949C3195.73 984.17 3195.24 984.542 3194.88 985.024C3194.51 985.506 3194.28 986.08 3194.22 986.682C3194.16 987.284 3194.26 987.892 3194.52 988.439L3175.44 1007.5H3037.74L3011.71 1033.56H2689.61L2603.91 1119.22H2293.95L2140.13 965.398H1875.47L1717.68 1123.23H1499.37L1292.14 915.954H783.304L756.258 943.005H695.384C695.161 942.362 694.745 941.803 694.193 941.406C693.641 941.008 692.98 940.791 692.3 940.784C691.425 940.784 690.585 941.132 689.966 941.751C689.348 942.369 689 943.209 689 944.084C689.007 944.923 689.332 945.728 689.911 946.335C690.489 946.943 691.277 947.307 692.115 947.354Z" fill="#042061"/>
<path d="M3162.73 1126.47C3163.16 1126.9 3163.69 1127.2 3164.28 1127.35C3164.87 1127.49 3165.48 1127.47 3166.06 1127.29C3166.64 1127.11 3167.15 1126.77 3167.55 1126.32C3167.95 1125.86 3168.22 1125.31 3168.32 1124.71C3168.43 1124.11 3168.36 1123.5 3168.14 1122.94C3167.92 1122.37 3167.55 1121.88 3167.07 1121.51C3166.59 1121.15 3166.01 1120.92 3165.41 1120.86C3164.81 1120.8 3164.2 1120.9 3163.65 1121.16L3132.82 1090.16H2901.78L2881.64 1070.05H2704.72L2619.05 1155.83H2278.84L2125.02 1001.95H1890.65L1732.79 1159.75H1484.23L1277.03 952.505H955.875C955.616 951.761 955.103 951.133 954.425 950.733C953.748 950.332 952.95 950.184 952.174 950.315C951.398 950.446 950.694 950.848 950.186 951.449C949.678 952.051 949.399 952.813 949.399 953.6C949.399 954.387 949.678 955.149 950.186 955.75C950.694 956.351 951.398 956.753 952.174 956.884C952.95 957.016 953.748 956.868 954.425 956.467C955.103 956.066 955.616 955.438 955.875 954.695H1276.1L1483.33 1161.97H1733.71L1891.51 1004.14H2124.09L2277.92 1157.99H2619.97L2705.64 1072.24H2880.74L2900.85 1092.38H3131.8L3162.11 1122.7C3161.81 1123.32 3161.71 1124.01 3161.82 1124.68C3161.93 1125.36 3162.25 1125.98 3162.73 1126.47V1126.47Z" fill="#042061"/>
<path d="M829.87 834.216L842.205 846.554H977.709L1012.77 881.686H1306.35L1513.56 1088.93H1703.46L1861.26 931.068H2154.22L2308.23 1084.89H2589.78L2675.45 999.172H2835.81L2871.95 963.115H2988.62L3009.03 942.665C3009.65 942.952 3010.34 943.043 3011.01 942.928C3011.69 942.812 3012.31 942.494 3012.79 942.018C3013.27 941.39 3013.5 940.613 3013.46 939.827C3013.41 939.041 3013.08 938.298 3012.53 937.732C3011.99 937.166 3011.26 936.814 3010.47 936.74C3009.69 936.667 3008.9 936.875 3008.26 937.329C3007.78 937.817 3007.47 938.438 3007.35 939.11C3007.24 939.782 3007.33 940.473 3007.61 941.092L2987.85 960.894H2871.03L2834.89 997.013H2674.53L2588.86 1082.73H2309.15L2155.27 928.847H1860.36L1702.53 1086.74H1514.42L1307.19 879.465H1013.67L978.603 844.302H843.161L831.443 832.582C831.728 831.973 831.819 831.291 831.703 830.628C831.588 829.966 831.27 829.356 830.795 828.88C830.173 828.258 829.33 827.909 828.451 827.909C827.572 827.909 826.729 828.258 826.108 828.88C825.486 829.502 825.137 830.345 825.137 831.224C825.137 832.104 825.486 832.947 826.108 833.569C826.595 834.045 827.216 834.363 827.888 834.478C828.56 834.594 829.251 834.503 829.87 834.216V834.216Z" fill="#042061"/>
<path d="M980.854 821.601C981.534 821.594 982.196 821.376 982.748 820.979C983.3 820.581 983.716 820.023 983.938 819.38H1093.2L1118.95 845.135H1321.4L1528.64 1052.41H1688.38L1846.15 894.579H2169.46L2323.25 1048.4H2571.96L2572.58 1048.96C2573.07 1049.42 2573.47 1049.36 2573.99 1048.96L2574.27 1048.68L2574.92 1048.03L2576.8 1046.21L2660.28 962.745H2819.44L2897.24 884.739H2966.35C2966.54 885.401 2966.95 885.979 2967.51 886.381C2968.07 886.784 2968.75 886.987 2969.43 886.96C2969.9 887.005 2970.36 886.952 2970.8 886.806C2971.24 886.659 2971.65 886.423 2971.99 886.11C2972.34 885.798 2972.61 885.417 2972.8 884.993C2972.99 884.568 2973.09 884.109 2973.09 883.644C2973.09 883.18 2972.99 882.72 2972.8 882.296C2972.61 881.871 2972.34 881.49 2971.99 881.178C2971.65 880.866 2971.24 880.629 2970.8 880.483C2970.36 880.336 2969.9 880.284 2969.43 880.328C2968.75 880.301 2968.07 880.505 2967.51 880.907C2966.95 881.31 2966.54 881.888 2966.35 882.549H2896.44L2818.51 960.524H2659.36L2578.77 1041.09L2573.69 1046.21H2324.2L2170.38 892.358H1845.22L1687.42 1050.19H1529.62L1322.39 842.914H1119.94L1094.19 817.19H983.938C983.734 816.62 983.378 816.116 982.907 815.735C982.436 815.354 981.87 815.11 981.27 815.029C980.67 814.949 980.059 815.035 979.505 815.278C978.95 815.521 978.474 815.913 978.127 816.409C977.78 816.905 977.576 817.487 977.538 818.092C977.499 818.696 977.628 819.3 977.91 819.836C978.191 820.372 978.615 820.82 979.134 821.131C979.654 821.443 980.249 821.605 980.854 821.601V821.601Z" fill="#042061"/>
<g opacity="0.3" filter="url(#filter0_f_725_495)">
<rect x="879" y="927" width="199" height="199" rx="99.5" fill="#042061"/>
</g>
</g>
<g style="mix-blend-mode:hard-light" clip-path="url(#clip1_725_495)">
<path d="M692.115 687.354C692.795 687.347 693.456 687.129 694.008 686.732C694.56 686.334 694.976 685.776 695.199 685.133H757.06L784.136 658.329H1291.21L1498.45 865.573H1718.6L1876.49 707.68H2139.24L2293.06 861.501H2604.83L2690.63 775.785H3012.64L3038.67 749.721H3176.36L3196.1 729.981C3196.7 730.282 3197.39 730.385 3198.06 730.274C3198.73 730.163 3199.35 729.845 3199.83 729.364C3200.26 728.937 3200.56 728.401 3200.71 727.813C3200.85 727.226 3200.83 726.609 3200.65 726.032C3200.47 725.454 3200.13 724.938 3199.68 724.539C3199.22 724.14 3198.67 723.874 3198.07 723.77C3197.47 723.666 3196.86 723.728 3196.3 723.949C3195.73 724.17 3195.24 724.542 3194.88 725.024C3194.51 725.506 3194.28 726.08 3194.22 726.682C3194.16 727.284 3194.26 727.892 3194.52 728.439L3175.44 747.5H3037.74L3011.71 773.564H2689.61L2603.91 859.219H2293.95L2140.13 705.398H1875.47L1717.68 863.229H1499.37L1292.14 655.954H783.304L756.258 683.005H695.384C695.161 682.362 694.745 681.803 694.193 681.406C693.641 681.008 692.98 680.791 692.3 680.784C691.425 680.784 690.585 681.132 689.966 681.751C689.348 682.369 689 683.209 689 684.084C689.007 684.923 689.332 685.728 689.911 686.335C690.489 686.943 691.277 687.307 692.115 687.354Z" fill="#042061"/>
<path d="M3162.73 866.467C3163.16 866.897 3163.69 867.201 3164.28 867.347C3164.87 867.492 3165.48 867.473 3166.06 867.291C3166.64 867.11 3167.15 866.773 3167.55 866.318C3167.95 865.862 3168.22 865.306 3168.32 864.71C3168.43 864.113 3168.36 863.5 3168.14 862.936C3167.92 862.373 3167.55 861.881 3167.07 861.515C3166.59 861.149 3166.01 860.922 3165.41 860.86C3164.81 860.798 3164.2 860.902 3163.65 861.162L3132.82 830.164H2901.78L2881.64 810.053H2704.72L2619.05 895.831H2278.84L2125.02 741.948H1890.65L1732.79 899.749H1484.23L1277.03 692.505H955.875C955.616 691.761 955.103 691.133 954.425 690.733C953.748 690.332 952.95 690.184 952.174 690.315C951.398 690.446 950.694 690.848 950.186 691.449C949.678 692.051 949.399 692.813 949.399 693.6C949.399 694.387 949.678 695.149 950.186 695.75C950.694 696.351 951.398 696.753 952.174 696.884C952.95 697.016 953.748 696.868 954.425 696.467C955.103 696.066 955.616 695.438 955.875 694.695H1276.1L1483.33 901.969H1733.71L1891.51 744.138H2124.09L2277.92 897.99H2619.97L2705.64 812.243H2880.74L2900.85 832.384H3131.8L3162.11 862.704C3161.81 863.318 3161.71 864.01 3161.82 864.684C3161.93 865.358 3162.25 865.981 3162.73 866.467V866.467Z" fill="#042061"/>
<path d="M829.87 574.216L842.205 586.554H977.709L1012.77 621.686H1306.35L1513.56 828.93H1703.46L1861.26 671.068H2154.22L2308.23 824.889H2589.78L2675.45 739.172H2835.81L2871.95 703.115H2988.62L3009.03 682.665C3009.65 682.952 3010.34 683.043 3011.01 682.928C3011.69 682.812 3012.31 682.494 3012.79 682.018C3013.27 681.39 3013.5 680.613 3013.46 679.827C3013.41 679.041 3013.08 678.298 3012.53 677.732C3011.99 677.166 3011.26 676.814 3010.47 676.74C3009.69 676.667 3008.9 676.875 3008.26 677.329C3007.78 677.817 3007.47 678.438 3007.35 679.11C3007.24 679.782 3007.33 680.473 3007.61 681.092L2987.85 700.894H2871.03L2834.89 737.013H2674.53L2588.86 822.73H2309.15L2155.27 668.847H1860.36L1702.53 826.74H1514.42L1307.19 619.465H1013.67L978.603 584.302H843.161L831.443 572.582C831.728 571.973 831.819 571.291 831.703 570.628C831.588 569.966 831.27 569.356 830.795 568.88C830.173 568.258 829.33 567.909 828.451 567.909C827.572 567.909 826.729 568.258 826.108 568.88C825.486 569.502 825.137 570.345 825.137 571.224C825.137 572.104 825.486 572.947 826.108 573.569C826.595 574.045 827.216 574.363 827.888 574.478C828.56 574.594 829.251 574.503 829.87 574.216V574.216Z" fill="#042061"/>
<path d="M980.854 561.601C981.534 561.594 982.196 561.376 982.748 560.979C983.3 560.581 983.716 560.023 983.938 559.38H1093.2L1118.95 585.135H1321.4L1528.64 792.41H1688.38L1846.15 634.579H2169.46L2323.25 788.4H2571.96L2572.58 788.955C2573.07 789.418 2573.47 789.356 2573.99 788.955L2574.27 788.677L2574.92 788.03L2576.8 786.21L2660.28 702.745H2819.44L2897.24 624.739H2966.35C2966.54 625.401 2966.95 625.979 2967.51 626.381C2968.07 626.784 2968.75 626.987 2969.43 626.96C2969.9 627.005 2970.36 626.952 2970.8 626.806C2971.24 626.659 2971.65 626.423 2971.99 626.11C2972.34 625.798 2972.61 625.417 2972.8 624.993C2972.99 624.568 2973.09 624.109 2973.09 623.644C2973.09 623.18 2972.99 622.72 2972.8 622.296C2972.61 621.871 2972.34 621.49 2971.99 621.178C2971.65 620.866 2971.24 620.629 2970.8 620.483C2970.36 620.336 2969.9 620.284 2969.43 620.328C2968.75 620.301 2968.07 620.505 2967.51 620.907C2966.95 621.31 2966.54 621.888 2966.35 622.549H2896.44L2818.51 700.524H2659.36L2578.77 781.09L2573.69 786.21H2324.2L2170.38 632.358H1845.22L1687.42 790.189H1529.62L1322.39 582.914H1119.94L1094.19 557.19H983.938C983.734 556.62 983.378 556.116 982.907 555.735C982.436 555.354 981.87 555.11 981.27 555.029C980.67 554.949 980.059 555.035 979.505 555.278C978.95 555.521 978.474 555.913 978.127 556.409C977.78 556.905 977.576 557.487 977.538 558.092C977.499 558.696 977.628 559.3 977.91 559.836C978.191 560.372 978.615 560.82 979.134 561.131C979.654 561.443 980.249 561.605 980.854 561.601V561.601Z" fill="#042061"/>
</g>
<g style="mix-blend-mode:hard-light" clip-path="url(#clip2_725_495)">
<path d="M692.115 393.354C692.795 393.347 693.456 393.129 694.008 392.732C694.56 392.334 694.976 391.776 695.199 391.133H757.06L784.136 364.329H1291.21L1498.45 571.573H1718.6L1876.49 413.68H2139.24L2293.06 567.501H2604.83L2690.63 481.785H3012.64L3038.67 455.721H3176.36L3196.1 435.981C3196.7 436.282 3197.39 436.385 3198.06 436.274C3198.73 436.163 3199.35 435.845 3199.83 435.364C3200.26 434.937 3200.56 434.401 3200.71 433.813C3200.85 433.226 3200.83 432.609 3200.65 432.032C3200.47 431.454 3200.13 430.938 3199.68 430.539C3199.22 430.14 3198.67 429.874 3198.07 429.77C3197.47 429.666 3196.86 429.728 3196.3 429.949C3195.73 430.17 3195.24 430.542 3194.88 431.024C3194.51 431.506 3194.28 432.08 3194.22 432.682C3194.16 433.284 3194.26 433.892 3194.52 434.439L3175.44 453.5H3037.74L3011.71 479.564H2689.61L2603.91 565.219H2293.95L2140.13 411.398H1875.47L1717.68 569.229H1499.37L1292.14 361.954H783.304L756.258 389.005H695.384C695.161 388.362 694.745 387.803 694.193 387.406C693.641 387.008 692.98 386.791 692.3 386.784C691.425 386.784 690.585 387.132 689.966 387.751C689.348 388.369 689 389.209 689 390.084C689.007 390.923 689.332 391.728 689.911 392.335C690.489 392.943 691.277 393.307 692.115 393.354Z" fill="#042061"/>
<path d="M3162.73 572.467C3163.16 572.897 3163.69 573.201 3164.28 573.347C3164.87 573.492 3165.48 573.473 3166.06 573.291C3166.64 573.11 3167.15 572.773 3167.55 572.318C3167.95 571.862 3168.22 571.306 3168.32 570.71C3168.43 570.113 3168.36 569.5 3168.14 568.936C3167.92 568.373 3167.55 567.881 3167.07 567.515C3166.59 567.149 3166.01 566.922 3165.41 566.86C3164.81 566.798 3164.2 566.902 3163.65 567.162L3132.82 536.164H2901.78L2881.64 516.053H2704.72L2619.05 601.831H2278.84L2125.02 447.948H1890.65L1732.79 605.749H1484.23L1277.03 398.505H955.875C955.616 397.761 955.103 397.133 954.425 396.733C953.748 396.332 952.95 396.184 952.174 396.315C951.398 396.446 950.694 396.848 950.186 397.449C949.678 398.051 949.399 398.813 949.399 399.6C949.399 400.387 949.678 401.149 950.186 401.75C950.694 402.351 951.398 402.753 952.174 402.884C952.95 403.016 953.748 402.868 954.425 402.467C955.103 402.066 955.616 401.438 955.875 400.695H1276.1L1483.33 607.969H1733.71L1891.51 450.138H2124.09L2277.92 603.99H2619.97L2705.64 518.243H2880.74L2900.85 538.384H3131.8L3162.11 568.704C3161.81 569.318 3161.71 570.01 3161.82 570.684C3161.93 571.358 3162.25 571.981 3162.73 572.467V572.467Z" fill="#042061"/>
<path d="M829.87 280.216L842.205 292.554H977.709L1012.77 327.686H1306.35L1513.56 534.93H1703.46L1861.26 377.068H2154.22L2308.23 530.889H2589.78L2675.45 445.172H2835.81L2871.95 409.115H2988.62L3009.03 388.665C3009.65 388.952 3010.34 389.043 3011.01 388.928C3011.69 388.812 3012.31 388.494 3012.79 388.018C3013.27 387.39 3013.5 386.613 3013.46 385.827C3013.41 385.041 3013.08 384.298 3012.53 383.732C3011.99 383.166 3011.26 382.814 3010.47 382.74C3009.69 382.667 3008.9 382.875 3008.26 383.329C3007.78 383.817 3007.47 384.438 3007.35 385.11C3007.24 385.782 3007.33 386.473 3007.61 387.092L2987.85 406.894H2871.03L2834.89 443.013H2674.53L2588.86 528.73H2309.15L2155.27 374.847H1860.36L1702.53 532.74H1514.42L1307.19 325.465H1013.67L978.603 290.302H843.161L831.443 278.582C831.728 277.973 831.819 277.291 831.703 276.628C831.588 275.966 831.27 275.356 830.795 274.88C830.173 274.258 829.33 273.909 828.451 273.909C827.572 273.909 826.729 274.258 826.108 274.88C825.486 275.502 825.137 276.345 825.137 277.224C825.137 278.104 825.486 278.947 826.108 279.569C826.595 280.045 827.216 280.363 827.888 280.478C828.56 280.594 829.251 280.503 829.87 280.216V280.216Z" fill="#042061"/>
<path d="M980.854 267.601C981.534 267.594 982.196 267.376 982.748 266.979C983.3 266.581 983.716 266.023 983.938 265.38H1093.2L1118.95 291.135H1321.4L1528.64 498.41H1688.38L1846.15 340.579H2169.46L2323.25 494.4H2571.96L2572.58 494.955C2573.07 495.418 2573.47 495.356 2573.99 494.955L2574.27 494.677L2574.92 494.03L2576.8 492.21L2660.28 408.745H2819.44L2897.24 330.739H2966.35C2966.54 331.401 2966.95 331.979 2967.51 332.381C2968.07 332.784 2968.75 332.987 2969.43 332.96C2969.9 333.005 2970.36 332.952 2970.8 332.806C2971.24 332.659 2971.65 332.423 2971.99 332.11C2972.34 331.798 2972.61 331.417 2972.8 330.993C2972.99 330.568 2973.09 330.109 2973.09 329.644C2973.09 329.18 2972.99 328.72 2972.8 328.296C2972.61 327.871 2972.34 327.49 2971.99 327.178C2971.65 326.866 2971.24 326.629 2970.8 326.483C2970.36 326.336 2969.9 326.284 2969.43 326.328C2968.75 326.301 2968.07 326.505 2967.51 326.907C2966.95 327.31 2966.54 327.888 2966.35 328.549H2896.44L2818.51 406.524H2659.36L2578.77 487.09L2573.69 492.21H2324.2L2170.38 338.358H1845.22L1687.42 496.189H1529.62L1322.39 288.914H1119.94L1094.19 263.19H983.938C983.734 262.62 983.378 262.116 982.907 261.735C982.436 261.354 981.87 261.11 981.27 261.029C980.67 260.949 980.059 261.035 979.505 261.278C978.95 261.521 978.474 261.913 978.127 262.409C977.78 262.905 977.576 263.487 977.538 264.092C977.499 264.696 977.628 265.3 977.91 265.836C978.191 266.372 978.615 266.82 979.134 267.131C979.654 267.443 980.249 267.605 980.854 267.601V267.601Z" fill="#042061"/>
</g>
<g style="mix-blend-mode:hard-light" clip-path="url(#clip3_725_495)">
<path d="M692.115 133.354C692.795 133.347 693.456 133.129 694.008 132.732C694.56 132.334 694.976 131.776 695.199 131.133H757.06L784.136 104.329H1291.21L1498.45 311.573H1718.6L1876.49 153.68H2139.24L2293.06 307.501H2604.83L2690.63 221.785H3012.64L3038.67 195.721H3176.36L3196.1 175.981C3196.7 176.282 3197.39 176.385 3198.06 176.274C3198.73 176.163 3199.35 175.845 3199.83 175.364C3200.26 174.937 3200.56 174.401 3200.71 173.813C3200.85 173.226 3200.83 172.609 3200.65 172.032C3200.47 171.454 3200.13 170.938 3199.68 170.539C3199.22 170.14 3198.67 169.874 3198.07 169.77C3197.47 169.666 3196.86 169.728 3196.3 169.949C3195.73 170.17 3195.24 170.542 3194.88 171.024C3194.51 171.506 3194.28 172.08 3194.22 172.682C3194.16 173.284 3194.26 173.892 3194.52 174.439L3175.44 193.5H3037.74L3011.71 219.564H2689.61L2603.91 305.219H2293.95L2140.13 151.398H1875.47L1717.68 309.229H1499.37L1292.14 101.954H783.304L756.258 129.005H695.384C695.161 128.362 694.745 127.803 694.193 127.406C693.641 127.008 692.98 126.791 692.3 126.784C691.425 126.784 690.585 127.132 689.966 127.751C689.348 128.369 689 129.209 689 130.084C689.007 130.923 689.332 131.728 689.911 132.335C690.489 132.943 691.277 133.307 692.115 133.354Z" fill="#042061"/>
<path d="M3162.73 312.467C3163.16 312.897 3163.69 313.201 3164.28 313.347C3164.87 313.492 3165.48 313.473 3166.06 313.291C3166.64 313.11 3167.15 312.773 3167.55 312.318C3167.95 311.862 3168.22 311.306 3168.32 310.71C3168.43 310.113 3168.36 309.5 3168.14 308.936C3167.92 308.373 3167.55 307.881 3167.07 307.515C3166.59 307.149 3166.01 306.922 3165.41 306.86C3164.81 306.798 3164.2 306.902 3163.65 307.162L3132.82 276.164H2901.78L2881.64 256.053H2704.72L2619.05 341.831H2278.84L2125.02 187.948H1890.65L1732.79 345.749H1484.23L1277.03 138.505H955.875C955.616 137.761 955.103 137.133 954.425 136.733C953.748 136.332 952.95 136.184 952.174 136.315C951.398 136.446 950.694 136.848 950.186 137.449C949.678 138.051 949.399 138.813 949.399 139.6C949.399 140.387 949.678 141.149 950.186 141.75C950.694 142.351 951.398 142.753 952.174 142.884C952.95 143.016 953.748 142.868 954.425 142.467C955.103 142.066 955.616 141.438 955.875 140.695H1276.1L1483.33 347.969H1733.71L1891.51 190.138H2124.09L2277.92 343.99H2619.97L2705.64 258.243H2880.74L2900.85 278.384H3131.8L3162.11 308.704C3161.81 309.318 3161.71 310.01 3161.82 310.684C3161.93 311.358 3162.25 311.981 3162.73 312.467V312.467Z" fill="#042061"/>
<path d="M829.87 20.2163L842.205 32.554H977.709L1012.77 67.6859H1306.35L1513.56 274.93H1703.46L1861.26 117.068H2154.22L2308.23 270.889H2589.78L2675.45 185.172H2835.81L2871.95 149.115H2988.62L3009.03 128.665C3009.65 128.952 3010.34 129.043 3011.01 128.928C3011.69 128.812 3012.31 128.494 3012.79 128.018C3013.27 127.39 3013.5 126.613 3013.46 125.827C3013.41 125.041 3013.08 124.298 3012.53 123.732C3011.99 123.166 3011.26 122.814 3010.47 122.74C3009.69 122.667 3008.9 122.875 3008.26 123.329C3007.78 123.817 3007.47 124.438 3007.35 125.11C3007.24 125.782 3007.33 126.473 3007.61 127.092L2987.85 146.894H2871.03L2834.89 183.013H2674.53L2588.86 268.73H2309.15L2155.27 114.847H1860.36L1702.53 272.74H1514.42L1307.19 65.4651H1013.67L978.603 30.3024H843.161L831.443 18.5815C831.728 17.9728 831.819 17.2908 831.703 16.6285C831.588 15.9661 831.27 15.3556 830.795 14.8802C830.173 14.2585 829.33 13.9092 828.451 13.9092C827.572 13.9092 826.729 14.2585 826.108 14.8802C825.486 15.5019 825.137 16.3451 825.137 17.2243C825.137 18.1036 825.486 18.9468 826.108 19.5685C826.595 20.0454 827.216 20.3628 827.888 20.4784C828.56 20.5941 829.251 20.5027 829.87 20.2163V20.2163Z" fill="#042061"/>
<path d="M980.854 7.60063C981.534 7.59353 982.196 7.37635 982.748 6.97881C983.3 6.58126 983.716 6.02279 983.938 5.37983H1093.2L1118.95 31.1349H1321.4L1528.64 238.41H1688.38L1846.15 80.5786H2169.46L2323.25 234.4H2571.96L2572.58 234.955C2573.07 235.418 2573.47 235.356 2573.99 234.955L2574.27 234.677L2574.92 234.03L2576.8 232.21L2660.28 148.745H2819.44L2897.24 70.7392H2966.35C2966.54 71.4006 2966.95 71.9787 2967.51 72.3811C2968.07 72.7836 2968.75 72.9874 2969.43 72.96C2969.9 73.0047 2970.36 72.9521 2970.8 72.8058C2971.24 72.6595 2971.65 72.4226 2971.99 72.1104C2972.34 71.7981 2972.61 71.4174 2972.8 70.9927C2972.99 70.568 2973.09 70.1087 2973.09 69.6442C2973.09 69.1798 2972.99 68.7204 2972.8 68.2957C2972.61 67.871 2972.34 67.4904 2971.99 67.1781C2971.65 66.8659 2971.24 66.629 2970.8 66.4827C2970.36 66.3363 2969.9 66.2838 2969.43 66.3285C2968.75 66.3011 2968.07 66.5048 2967.51 66.9073C2966.95 67.3098 2966.54 67.8878 2966.35 68.5493H2896.44L2818.51 146.524H2659.36L2578.77 227.09L2573.69 232.21H2324.2L2170.38 78.3578H1845.22L1687.42 236.189H1529.62L1322.39 28.9141H1119.94L1094.19 3.18987H983.938C983.734 2.61959 983.378 2.11637 982.907 1.73531C982.436 1.35424 981.87 1.11002 981.27 1.02939C980.67 0.948754 980.059 1.03482 979.505 1.27815C978.95 1.52149 978.474 1.91272 978.127 2.409C977.78 2.90528 977.576 3.48748 977.538 4.09186C977.499 4.69624 977.628 5.2995 977.91 5.83558C978.191 6.37166 978.615 6.8199 979.134 7.13122C979.654 7.44254 980.249 7.60494 980.854 7.60063V7.60063Z" fill="#042061"/>
</g>
</g>
<defs>
<filter id="filter0_f_725_495" x="607" y="655" width="743" height="743" filterUnits="userSpaceOnUse" color-interpolation-filters="sRGB">
<feFlood flood-opacity="0" result="BackgroundImageFix"/>
<feBlend mode="normal" in="SourceGraphic" in2="BackgroundImageFix" result="shape"/>
<feGaussianBlur stdDeviation="136" result="effect1_foregroundBlur_725_495"/>
</filter>
<linearGradient id="paint0_linear_725_495" x1="2055" y1="1078.5" x2="-3.36856" y2="225.125" gradientUnits="userSpaceOnUse">
<stop stop-color="#C1EAFF"/>
<stop offset="1" stop-color="white"/>
</linearGradient>
<clipPath id="clip0_725_495">
<rect width="2512" height="347" fill="white" transform="translate(649 814)"/>
</clipPath>
<clipPath id="clip1_725_495">
<rect width="2512" height="347" fill="white" transform="translate(649 554)"/>
</clipPath>
<clipPath id="clip2_725_495">
<rect width="2512" height="347" fill="white" transform="translate(649 260)"/>
</clipPath>
<clipPath id="clip3_725_495">
<rect width="2512" height="347" fill="white" transform="translate(649)"/>
</clipPath>
</defs>
</svg>
