<svg width="20" height="20" viewBox="0 0 20 20" fill="none" xmlns="http://www.w3.org/2000/svg">
<path d="M10 14.4584C10.7502 14.4584 11.3583 13.8502 11.3583 13.1C11.3583 12.3498 10.7502 11.7417 10 11.7417C9.24981 11.7417 8.64167 12.3498 8.64167 13.1C8.64167 13.8502 9.24981 14.4584 10 14.4584Z" fill="white"/>
<path d="M15.2333 7.9415V6.89984C15.2333 4.64984 14.6917 1.6665 10 1.6665C5.30833 1.6665 4.76667 4.64984 4.76667 6.89984V7.9415C2.43333 8.23317 1.66667 9.4165 1.66667 12.3248V13.8748C1.66667 17.2915 2.70833 18.3332 6.125 18.3332H13.875C17.2917 18.3332 18.3333 17.2915 18.3333 13.8748V12.3248C18.3333 9.4165 17.5667 8.23317 15.2333 7.9415ZM10 15.6165C8.60833 15.6165 7.48333 14.4832 7.48333 13.0998C7.48333 11.7082 8.61667 10.5832 10 10.5832C11.3833 10.5832 12.5167 11.7165 12.5167 13.0998C12.5167 14.4915 11.3917 15.6165 10 15.6165ZM6.125 7.8665C6.05833 7.8665 6 7.8665 5.93333 7.8665V6.89984C5.93333 4.45817 6.625 2.83317 10 2.83317C13.375 2.83317 14.0667 4.45817 14.0667 6.89984V7.87484C14 7.87484 13.9417 7.87484 13.875 7.87484H6.125V7.8665Z" fill="white"/>
</svg>
