<svg width="40" height="40" viewBox="0 0 40 40" fill="none" xmlns="http://www.w3.org/2000/svg">
<path d="M28.3334 5H11.6667C7.06671 5 3.33337 8.73333 3.33337 13.3333V15V26.6667C3.33337 31.2667 7.06671 35 11.6667 35H26.6667H28.3334C32.9334 35 36.6667 31.2667 36.6667 26.6667V13.3333C36.6667 8.73333 32.9334 5 28.3334 5ZM17.4834 28.0167C17.4334 28.0167 17.3834 28.0333 17.3167 28.0333C16.7 28.0333 16.1667 27.5667 16.0834 26.95C15.8667 25.25 14.6334 24.0167 12.9334 23.8C12.25 23.7167 11.7667 23.0833 11.85 22.4C11.9334 21.7167 12.5667 21.2333 13.25 21.3167C16.0667 21.6833 18.2 23.8167 18.5667 26.6333C18.65 27.3 18.1667 27.9333 17.4834 28.0167ZM22.5667 27.1667C22.5167 27.1667 22.4667 27.1833 22.4 27.1833C21.7834 27.1833 21.25 26.7167 21.1667 26.1C20.65 22.1333 17.7667 19.2333 13.7834 18.7167C13.1 18.6333 12.6167 18 12.7 17.3167C12.7834 16.6333 13.4167 16.15 14.1 16.2333C19.2334 16.9 22.9834 20.6333 23.65 25.7833C23.7334 26.45 23.25 27.0667 22.5667 27.1667ZM27.0667 25.7167C27.0167 25.7167 26.9667 25.7333 26.9 25.7333C26.2834 25.7333 25.75 25.2667 25.6667 24.65C24.95 19.0167 20.85 14.9167 15.2167 14.2C14.5334 14.1167 14.05 13.4833 14.1334 12.8C14.2167 12.1167 14.85 11.6333 15.5334 11.7167C22.3167 12.5833 27.2667 17.5333 28.15 24.3333C28.2334 25.0167 27.75 25.6333 27.0667 25.7167Z" fill="white"/>
</svg>
