<svg width="40" height="40" viewBox="0 0 40 40" fill="none" xmlns="http://www.w3.org/2000/svg">
<path d="M34.9833 16.1833C34.4167 15.9499 33.6667 15.8333 32.7333 15.8333H23.9333C21.0333 15.8333 20 16.8666 20 19.7999V32.6999C20 33.6666 20.1167 34.4166 20.3667 34.9999C20.8833 36.1999 21.9833 36.6666 23.9333 36.6666H32.7333C35.6333 36.6666 36.6667 35.6166 36.6667 32.6999V19.7999C36.6667 17.8166 36.2 16.6999 34.9833 16.1833ZM30 32.9166H26.6667C26.6333 32.9166 26.5833 32.9166 26.55 32.8999C26.3 32.8833 26.0833 32.7999 25.9 32.6333C25.6 32.4166 25.4167 32.0666 25.4167 31.6666C25.4167 30.9833 25.9833 30.4166 26.6667 30.4166H30C30.6833 30.4166 31.25 30.9833 31.25 31.6666C31.25 32.3499 30.6833 32.9166 30 32.9166Z" fill="white"/>
<path d="M34.9834 10.3166V11.6666C34.9834 12.5833 34.2334 13.3333 33.3168 13.3333H23.9334C19.6668 13.3333 17.5001 15.5166 17.5001 19.7999V34.9999C17.5001 35.9166 16.7501 36.6666 15.8334 36.6666H12.5834C11.9168 36.6666 11.3834 36.1333 11.3834 35.4833C11.3834 34.8166 11.9168 34.2999 12.5834 34.2999H15.8334V27.9166H10.0001C6.3001 27.7333 3.3501 24.6833 3.3501 20.9333V10.3166C3.3501 6.46659 6.48343 3.33325 10.3501 3.33325H28.0001C31.8501 3.33325 34.9834 6.46659 34.9834 10.3166Z" fill="white"/>
</svg>
