<svg width="40" height="40" viewBox="0 0 40 40" fill="none" xmlns="http://www.w3.org/2000/svg">
<path d="M29.2166 12.9499C29.0999 12.9333 28.9833 12.9333 28.8666 12.9499C26.2833 12.8666 24.2333 10.7499 24.2333 8.14992C24.2333 5.49992 26.3833 3.33325 29.0499 3.33325C31.6999 3.33325 33.8666 5.48325 33.8666 8.14992C33.8499 10.7499 31.7999 12.8666 29.2166 12.9499Z" fill="white"/>
<path d="M34.65 24.4999C32.7833 25.7499 30.1666 26.2166 27.75 25.8999C28.3833 24.5333 28.7166 23.0166 28.7333 21.4166C28.7333 19.7499 28.3666 18.1666 27.6666 16.7833C30.1333 16.4499 32.75 16.9166 34.6333 18.1666C37.2666 19.8999 37.2666 22.7499 34.65 24.4999Z" fill="white"/>
<path d="M10.7333 12.9499C10.85 12.9333 10.9666 12.9333 11.0833 12.9499C13.6666 12.8666 15.7166 10.7499 15.7166 8.14992C15.7166 5.48325 13.5666 3.33325 10.9 3.33325C8.24998 3.33325 6.09998 5.48325 6.09998 8.14992C6.09998 10.7499 8.14998 12.8666 10.7333 12.9499Z" fill="white"/>
<path d="M10.9166 21.4167C10.9166 23.0333 11.2666 24.5667 11.9 25.95C9.54995 26.2 7.09995 25.7 5.29995 24.5167C2.66662 22.7667 2.66662 19.9167 5.29995 18.1667C7.08328 16.9667 9.59995 16.4833 11.9666 16.75C11.2833 18.15 10.9166 19.7333 10.9166 21.4167Z" fill="white"/>
<path d="M20.2 26.45C20.0667 26.4333 19.9167 26.4333 19.7667 26.45C16.7 26.35 14.25 23.8333 14.25 20.7333C14.2667 17.5667 16.8167 15 20 15C23.1667 15 25.7333 17.5667 25.7333 20.7333C25.7167 23.8333 23.2833 26.35 20.2 26.45Z" fill="white"/>
<path d="M14.7834 29.8999C12.2667 31.5832 12.2667 34.3499 14.7834 36.0166C17.65 37.9332 22.35 37.9332 25.2167 36.0166C27.7334 34.3332 27.7334 31.5666 25.2167 29.8999C22.3667 27.9832 17.6667 27.9832 14.7834 29.8999Z" fill="white"/>
</svg>
