<svg width="18" height="18" viewBox="0 0 18 18" fill="none" xmlns="http://www.w3.org/2000/svg">
<path d="M8.16675 0.666748C12.3067 0.666748 15.6667 4.02675 15.6667 8.16675C15.6667 12.3067 12.3067 15.6667 8.16675 15.6667C4.02675 15.6667 0.666748 12.3067 0.666748 8.16675C0.666748 4.02675 4.02675 0.666748 8.16675 0.666748ZM8.16675 14.0001C11.3892 14.0001 14.0001 11.3892 14.0001 8.16675C14.0001 4.94341 11.3892 2.33341 8.16675 2.33341C4.94341 2.33341 2.33341 4.94341 2.33341 8.16675C2.33341 11.3892 4.94341 14.0001 8.16675 14.0001ZM15.2376 14.0592L17.5951 16.4159L16.4159 17.5951L14.0592 15.2376L15.2376 14.0592Z" fill="#828BA3"/>
</svg>
