<svg width="20" height="20" viewBox="0 0 20 20" fill="none" xmlns="http://www.w3.org/2000/svg">
<path d="M14.1667 2.5H5.83333C3.33333 2.5 1.66667 3.75 1.66667 6.66667V12.5C1.66667 15.4167 3.33333 16.6667 5.83333 16.6667H14.1667C16.6667 16.6667 18.3333 15.4167 18.3333 12.5V6.66667C18.3333 3.75 16.6667 2.5 14.1667 2.5ZM14.5583 7.575L11.95 9.65833C11.4 10.1 10.7 10.3167 10 10.3167C9.3 10.3167 8.59167 10.1 8.05 9.65833L5.44167 7.575C5.175 7.35833 5.13333 6.95833 5.34167 6.69167C5.55833 6.425 5.95 6.375 6.21667 6.59167L8.825 8.675C9.45833 9.18333 10.5333 9.18333 11.1667 8.675L13.775 6.59167C14.0417 6.375 14.4417 6.41667 14.65 6.69167C14.8667 6.95833 14.825 7.35833 14.5583 7.575Z" fill="white"/>
</svg>
