<svg width="126" height="127" viewBox="0 0 126 127" fill="none" xmlns="http://www.w3.org/2000/svg">
<path d="M64.8746 2.90173C64.8102 2.35721 64.5488 1.93449 64.0905 1.63357C63.6322 1.33265 63.07 1.18219 62.4041 1.18219C61.9171 1.18219 61.4911 1.261 61.1258 1.41863C60.7642 1.57625 60.4814 1.79298 60.2773 2.06883C60.0768 2.34467 59.9765 2.65813 59.9765 3.0092C59.9765 3.30296 60.0463 3.55552 60.186 3.76688C60.3292 3.97466 60.5118 4.1484 60.7338 4.28812C60.9558 4.42425 61.1885 4.53709 61.432 4.62665C61.6755 4.71263 61.8992 4.78249 62.1033 4.83622L63.2204 5.13714C63.5069 5.21237 63.8255 5.31626 64.1764 5.44881C64.5309 5.58136 64.8692 5.76227 65.1915 5.99154C65.5173 6.21723 65.7858 6.50741 65.9971 6.86206C66.2083 7.21672 66.314 7.65198 66.314 8.16784C66.314 8.76252 66.1582 9.29988 65.8467 9.77992C65.5388 10.26 65.0876 10.6415 64.4933 10.9245C63.9025 11.2075 63.1846 11.349 62.3396 11.349C61.5519 11.349 60.8698 11.2218 60.2934 10.9675C59.7205 10.7131 59.2694 10.3585 58.94 9.90351C58.6141 9.44855 58.4297 8.92014 58.3868 8.3183H59.7617C59.7975 8.73386 59.9371 9.07777 60.1806 9.35003C60.4277 9.61871 60.7392 9.81932 61.1151 9.95187C61.4946 10.0808 61.9028 10.1453 62.3396 10.1453C62.8481 10.1453 63.3046 10.0629 63.7092 9.89814C64.1138 9.72976 64.4342 9.49691 64.6705 9.19957C64.9068 8.89865 65.025 8.54758 65.025 8.14635C65.025 7.78094 64.9229 7.48361 64.7189 7.25433C64.5148 7.02506 64.2462 6.83878 63.9133 6.69548C63.5803 6.55219 63.2204 6.4268 62.8337 6.31933L61.4803 5.93243C60.621 5.68525 59.9407 5.33238 59.4394 4.87384C58.9382 4.41529 58.6875 3.81524 58.6875 3.07369C58.6875 2.45752 58.854 1.92016 59.187 1.46161C59.5236 0.999486 59.9747 0.641247 60.5404 0.386898C61.1097 0.128966 61.7453 0 62.447 0C63.156 0 63.7861 0.127175 64.3375 0.381524C64.8889 0.632291 65.3258 0.9762 65.648 1.41325C65.9738 1.8503 66.1457 2.34646 66.1636 2.90173H64.8746Z" fill="#042061"/>
<path d="M71.7727 11.9508L74.405 1.26553L80.8503 2.85501L80.5676 4.00284L75.4155 2.73229L74.5261 6.34276L79.3444 7.531L79.0616 8.67884L74.2433 7.49059L73.3487 11.1219L78.5842 12.4131L78.3015 13.5609L71.7727 11.9508Z" fill="#042061"/>
<path d="M83.7383 15.6689L88.8499 5.92439L94.7278 9.01096L94.1787 10.0577L89.4802 7.59048L87.753 10.8831L92.1472 13.1905L91.5981 14.2373L87.2039 11.9298L85.4668 15.2415L90.2414 17.7487L89.6923 18.7954L83.7383 15.6689Z" fill="#042061"/>
<path d="M103.174 30.7671L110.518 22.0389L111.287 23.1534L105.22 30.1378L105.281 30.2262L113.984 27.0627L114.838 28.301L108.796 35.3208L108.857 35.4092L117.535 32.2104L118.304 33.3248L107.543 37.0999L106.762 35.9678L112.597 28.9871L112.548 28.9164L103.955 31.8992L103.174 30.7671Z" fill="#042061"/>
<path d="M109.579 41.0666L119.863 37.1642L120.335 38.4102L115.756 40.148L117.835 45.6346L122.415 43.8968L122.887 45.1429L112.603 49.0453L112.131 47.7993L116.731 46.0539L114.651 40.5672L110.051 42.3127L109.579 41.0666Z" fill="#042061"/>
<path d="M113.595 53.9232L113.426 52.5362L124.832 55.2212L124.998 56.5868L114.566 61.9248L114.397 60.5378L123.193 56.1565L123.183 56.0712L113.595 53.9232ZM117.922 53.9171L118.601 59.5076L117.428 59.6501L116.749 54.0596L117.922 53.9171Z" fill="#042061"/>
<path d="M124.193 66.4555L125.366 66.598L124.372 74.7916L123.199 74.6491L123.616 71.2138L113.869 70.0298L114.03 68.7068L123.776 69.8909L124.193 66.4555Z" fill="#042061"/>
<path d="M107.117 89.7354L117.878 93.5105L117.109 94.625L108.43 91.4261L108.369 91.5145L114.412 98.5343L113.558 99.7726L104.855 96.6091L104.794 96.6976L110.861 103.682L110.092 104.796L102.748 96.0683L103.529 94.9362L112.122 97.919L112.17 97.8482L106.336 90.8676L107.117 89.7354Z" fill="#042061"/>
<path d="M99.2387 99.8438L106.533 108.081L101.564 112.486L100.78 111.601L104.752 108.08L102.288 105.297L98.573 108.589L97.7895 107.704L101.504 104.412L99.0252 101.612L94.9891 105.19L94.2056 104.305L99.2387 99.8438Z" fill="#042061"/>
<path d="M77.7313 112.797L79.0871 112.463L77.798 124.115L76.463 124.444L69.9093 114.726L71.2651 114.392L76.6724 122.6L76.7558 122.579L77.7313 112.797ZM78.2589 117.095L72.794 118.442L72.5112 117.295L77.9762 115.947L78.2589 117.095Z" fill="#042061"/>
<path d="M65.8548 115.062V126.067H62.1382C61.2789 126.067 60.5736 125.92 60.0222 125.626C59.4708 125.336 59.0626 124.937 58.7976 124.428C58.5327 123.919 58.4002 123.341 58.4002 122.692C58.4002 122.044 58.5327 121.469 58.7976 120.968C59.0626 120.466 59.469 120.072 60.0168 119.785C60.5646 119.502 61.2646 119.361 62.1167 119.361H65.1243V120.565H62.1597C61.5725 120.565 61.0999 120.65 60.7418 120.822C60.3802 120.994 60.1188 121.238 59.9577 121.553C59.793 121.872 59.7107 122.252 59.7107 122.692C59.7107 123.133 59.793 123.518 59.9577 123.848C60.1224 124.177 60.3856 124.432 60.7472 124.611C61.1088 124.794 61.5868 124.885 62.1812 124.885H64.5228V115.062H65.8548ZM60.6774 120.006L57.9705 115.062H59.5173L62.1812 120.006H60.6774Z" fill="#042061"/>
<path d="M53.1334 114.267L50.5012 124.952L44.0558 123.363L44.3386 122.215L49.4907 123.485L50.3801 119.875L45.5618 118.687L45.8445 117.539L50.6629 118.727L51.5574 115.096L46.3219 113.804L46.6047 112.657L53.1334 114.267Z" fill="#042061"/>
<path d="M30.2611 103.915L31.3063 104.842L20.9894 110.4L19.9602 109.487L24.231 98.5704L25.2762 99.4969L21.5965 108.612L21.6609 108.669L30.2611 103.915ZM27.026 106.791L22.813 103.057L23.5965 102.172L27.8095 105.906L27.026 106.791Z" fill="#042061"/>
<path d="M21.2056 94.6876L12.1535 100.939L11.3968 99.8424L19.4766 94.2624L16.5721 90.0523L17.5445 89.3807L21.2056 94.6876Z" fill="#042061"/>
<path d="M14.851 83.8936L4.56649 87.796L4.09417 86.55L13.2739 83.0667L11.4608 78.2835L12.5656 77.8643L14.851 83.8936Z" fill="#042061"/>
<path d="M10.6005 59.7819L10.4322 61.1689L0 55.8309L0.165726 54.4653L11.5716 51.7803L11.4033 53.1673L1.81547 55.3153L1.80511 55.4006L10.6005 59.7819ZM6.39743 58.7517L7.07588 53.1612L8.24882 53.3037L7.57038 58.8942L6.39743 58.7517Z" fill="#042061"/>
<path d="M12.6771 48.0588L2.39268 44.1563L3.75629 40.5588C4.028 39.842 4.37596 39.2978 4.80018 38.9262C5.22105 38.5534 5.68222 38.3318 6.18369 38.2616C6.6818 38.1901 7.18195 38.2496 7.68412 38.4401C8.12603 38.6078 8.4611 38.825 8.68934 39.0917C8.91885 39.355 9.06905 39.6457 9.13995 39.9638C9.21211 40.2785 9.2325 40.5985 9.20112 40.9238L9.30156 40.9619C9.44099 40.6546 9.67145 40.38 9.99294 40.138C10.3144 39.896 10.7033 39.739 11.1595 39.6669C11.6157 39.5948 12.115 39.6617 12.6573 39.8675C13.1729 40.0631 13.5921 40.3563 13.915 40.747C14.2379 41.1377 14.424 41.6317 14.4734 42.2289C14.5227 42.8262 14.3937 43.5301 14.0865 44.3407L12.6771 48.0588ZM12.0447 46.3935L12.9817 43.9215C13.2902 43.1076 13.3519 42.4701 13.1667 42.009C12.9794 41.5433 12.6598 41.2247 12.2079 41.0532C11.8597 40.9211 11.5047 40.8879 11.1428 40.9536C10.7775 41.0181 10.444 41.1808 10.1421 41.4417C9.83689 41.7014 9.59922 42.0557 9.42908 42.5045L8.46922 45.0368L12.0447 46.3935ZM7.38453 44.6252L8.26059 42.314C8.4028 41.9388 8.45738 41.5726 8.42435 41.2152C8.39258 40.8545 8.27643 40.5346 8.0759 40.2554C7.87664 39.9729 7.59622 39.7631 7.23466 39.6259C6.78271 39.4544 6.33971 39.4664 5.90567 39.6618C5.46828 39.856 5.12008 40.2947 4.86107 40.9781L3.96977 43.3295L7.38453 44.6252Z" fill="#042061"/>
<path d="M18.2057 26.1921C19.1604 26.8514 19.8665 27.5937 20.3239 28.4189C20.7813 29.2441 20.9912 30.0877 20.9534 30.9496C20.9157 31.8115 20.6304 32.6287 20.0975 33.4012C19.5646 34.1736 18.9021 34.7303 18.11 35.0713C17.3179 35.4122 16.4551 35.515 15.5218 35.3797C14.5884 35.2444 13.6443 34.8471 12.6896 34.1877C11.7349 33.5284 11.0288 32.7861 10.5713 31.9609C10.1139 31.1356 9.90405 30.2921 9.9418 29.4302C9.97955 28.5682 10.2649 27.751 10.7978 26.9786C11.3307 26.2062 11.9932 25.6495 12.7853 25.3085C13.5774 24.9675 14.4401 24.8647 15.3735 25.0001C16.3069 25.1354 17.2509 25.5327 18.2057 26.1921ZM17.4734 27.2534C16.6896 26.7121 15.9376 26.3864 15.2173 26.2764C14.4991 26.1635 13.8479 26.2339 13.2638 26.4878C12.6817 26.7388 12.2015 27.1384 11.8232 27.6868C11.4449 28.2352 11.2407 28.8276 11.2105 29.4641C11.1824 30.0976 11.3475 30.7318 11.7057 31.3666C12.066 31.9984 12.638 32.585 13.4218 33.1263C14.2056 33.6677 14.9567 33.9948 15.6749 34.1078C16.3951 34.2178 17.0463 34.1473 17.6284 33.8964C18.2125 33.6425 18.6937 33.2413 19.072 32.693C19.4503 32.1446 19.6536 31.5536 19.6817 30.9201C19.7118 30.2836 19.5467 29.6495 19.1865 29.0176C18.8283 28.3828 18.2572 27.7947 17.4734 27.2534Z" fill="#042061"/>
<path d="M23.2469 13.8167L24.2439 12.933L29.0732 18.3871C29.5718 18.9502 29.8843 19.5705 30.0108 20.2482C30.1375 20.9207 30.0738 21.597 29.8196 22.277C29.5631 22.9542 29.1119 23.5791 28.466 24.1516C27.8201 24.7242 27.1457 25.097 26.4428 25.2702C25.7375 25.4406 25.0575 25.4236 24.4028 25.219C23.7484 25.0094 23.1719 24.623 22.6733 24.0599L17.844 18.6058L18.841 17.7221L23.599 23.0958C23.9552 23.498 24.3606 23.7776 24.8153 23.9345C25.2676 24.0888 25.7367 24.1108 26.2228 24.0007C26.7091 23.8854 27.1815 23.6247 27.6397 23.2185C28.098 22.8123 28.4136 22.3746 28.5866 21.9054C28.7571 21.4336 28.7918 20.9649 28.6906 20.4994C28.5897 20.0289 28.3612 19.5926 28.005 19.1903L23.2469 13.8167Z" fill="#042061"/>
<path d="M30.1337 10.3696L29.5846 9.32282L36.8891 5.48708L37.4382 6.53386L34.3756 8.14207L38.9381 16.8398L37.7588 17.4591L33.1963 8.76138L30.1337 10.3696Z" fill="#042061"/>
</svg>
