<svg width="25" height="25" viewBox="0 0 25 25" fill="none" xmlns="http://www.w3.org/2000/svg">
<path d="M16.9162 18.3513L12.4606 7.62766L9.43988 14.4243H1.8125V12.9895H8.45814L12.5361 3.92725L17.0673 14.953L18.8797 11.7057H23.2598V13.1405H19.7859L16.9162 18.3513Z" fill="#FF7300"/>
<path d="M21.3718 3.62489C19.0307 1.2083 16.0855 0 12.5361 0C12.4606 0 12.3851 0 12.3851 0C10.195 0 8.08049 0.52863 6.19253 1.66141C4.30456 2.79419 2.79419 4.30456 1.66141 6.26805C0.528631 8.23153 0 10.3461 0 12.6116C0 16.0099 1.2083 18.9552 3.62489 21.3718C6.04149 23.7884 8.98672 24.9967 12.5361 24.9967C16.01 24.9967 18.9552 23.7884 21.3718 21.3718C23.7884 18.9552 24.9967 16.0099 24.9967 12.5361C25.0722 8.98672 23.8639 5.96597 21.3718 3.62489ZM21.2963 17.5958C20.39 19.1817 19.1817 20.39 17.6714 21.2963C16.0855 22.2025 14.4241 22.6556 12.6116 22.6556C12.6116 22.6556 12.6116 22.6556 12.5361 22.6556C9.7419 22.6556 7.40083 21.6738 5.43734 19.7859C3.47386 17.8224 2.49211 15.4813 2.49211 12.6116C2.49211 10.7236 2.94523 8.98672 3.77593 7.40083C4.68215 5.89045 5.89045 4.60664 7.47634 3.70041C9.06223 2.79419 10.7236 2.34108 12.4606 2.34108C12.4606 2.34108 12.4606 2.34108 12.5361 2.34108C14.273 2.34108 16.0099 2.79419 17.5203 3.70041C19.1062 4.60664 20.3145 5.81493 21.2207 7.32531C22.127 8.83568 22.5045 10.5726 22.5045 12.4606C22.5801 14.3485 22.127 16.0855 21.2963 17.5958Z" fill="#FF7300"/>
</svg>
