<svg width="500" height="120" viewBox="0 0 500 120" fill="none" xmlns="http://www.w3.org/2000/svg">
<path fill-rule="evenodd" clip-rule="evenodd" d="M56 69.5034C56.7 69.2034 57.4 69.7034 57.4 70.4034V106.803H53.2V83.2034L46.2 79.7034V106.803V74.8034C46.2 74.4034 46.4 74.1034 46.8 73.9034L56 69.5034ZM36 84.9034C35.3 85.2034 34.9 85.9034 34.9 86.7034V106.803H46.3V79.7034L36 84.9034ZM67.4 84.9034C67.7 85.1034 68 85.4034 68 85.8034V106.803H61V83.3034C61 82.6034 61.8 82.1034 62.4 82.4034L67.4 84.9034Z" fill="#F1AB24"/>
<path fill-rule="evenodd" clip-rule="evenodd" d="M103.3 54.9034V57.4034L99 58.4034C87 61.1034 77.1 62.7034 65.7 63.8034C59.6 64.4034 44.9 64.4034 39.2 63.9034C28.2 62.9034 16.8 61.2034 6.89999 59.0034C4.59999 58.5034 2.19999 57.9034 1.39999 57.8034L0 57.5034V55.0034V52.5034H51.7H103.4V54.9034H103.3ZM18.3 69.2034C21.5 69.7034 24.2 70.2034 24.2 70.2034C24.2 70.2034 24.1 71.3034 24 72.6034C22.9 80.9034 25.9 89.6034 32 95.7034C35.6 99.3034 39.9 101.703 45.3 103.103C48.4 103.903 54.9 103.903 58.1 103.103C68.5 100.403 75.9 93.0034 78.7 82.5034C79.3 80.3034 79.5 74.8034 79.1 71.8034L78.9 70.2034L84.1 69.3034C87 68.8034 90.7 68.2034 92.3 67.8034L95.3 67.2034V73.6034V80.0034H92.5C88.1 80.0034 87.3 80.6034 86.3 84.5034C85.6 87.3034 84.1 91.0034 82.8 93.3034C81 96.4034 80.8 96.9034 80.8 97.7034C80.8 99.0034 81.3 99.9034 83.4 102.003L85.4 104.003L82.6 106.803L79.8 109.603L77.7 107.603C74.3 104.303 73.9 104.303 69.2 107.003C66.7 108.403 64.3 109.403 61.5 110.203C56.2 111.703 55.7 112.203 55.7 116.903V119.803H51.7H47.7V116.903C47.7 112.403 47.1 111.603 43.2 110.603C39.6 109.703 35.5 108.003 32.6 106.103C29.9 104.403 28.7 104.603 25.8 107.503L23.6 109.603L20.8 106.803L18 104.003L20.2 101.803C23.2 98.7034 23.3 97.8034 21.2 94.3034C19.6 91.7034 18.3 88.8034 17.5 85.8034C16 80.5034 15.5 80.0034 10.9 80.0034H7.89999V73.6034V67.2034L10.2 67.7034C11.5 68.0034 15.1 68.7034 18.3 69.2034Z" fill="white"/>
<path fill-rule="evenodd" clip-rule="evenodd" d="M60.3001 0.703342C62.8001 1.10334 67.9001 2.40334 68.2001 2.70334C68.2001 2.70334 65.4001 9.10332 61.9001 16.9033C58.0001 25.7033 55.5001 31.4033 55.5001 31.9033C55.5001 33.9033 57.5001 35.9033 59.5001 35.9033C60.7001 35.9033 62.3001 35.0033 62.9001 34.0033C63.1001 33.5033 65.3001 28.7033 67.8001 23.3033C70.2001 17.9033 72.3001 13.4033 72.4001 13.3033C72.5001 13.2033 73.9001 14.1033 75.6001 15.2033C82.6001 19.8033 88.6001 27.0033 91.8001 34.7033C92.9001 37.4033 94.1001 41.0033 94.4001 43.0033L94.6001 44.0033H51.6001H8.6001L8.80008 43.0033C9.90008 37.1033 13.6001 29.5033 17.7001 24.3033C20.9001 20.3033 26.5001 15.5033 30.0001 13.7033L30.8001 13.3033L31.3001 14.4033C31.6001 15.0033 33.7001 19.6033 35.9001 24.6033C38.1001 29.6033 40.1001 34.0033 40.4001 34.3033C40.9001 35.1033 42.6001 35.9033 43.6001 35.9033C45.6001 35.9033 47.6001 33.9033 47.6001 31.9033C47.6001 31.4033 45.2001 25.7033 41.3001 17.2033C37.9001 9.50334 35.0001 3.10333 34.9001 3.00333C34.7001 2.40333 41.8001 0.803336 47.0001 0.103336C49.4001 -0.196664 57.4001 0.203342 60.3001 0.703342Z" fill="#F1AB24"/>
<mask id="mask0_1050_499" style="mask-type:alpha" maskUnits="userSpaceOnUse" x="127" y="21" width="373" height="78">
<path d="M499.3 21.5034H127.3V98.5034H499.3V21.5034Z" fill="white"/>
</mask>
<g mask="url(#mask0_1050_499)">
<path d="M146 89.3034C142.5 89.3034 139.3 88.6034 136.3 87.2034C133.3 85.8034 130.9 83.8034 129.1 81.4034V80.8034L132.9 76.8034H133.5C135 78.7034 136.9 80.3034 139.1 81.4034C141.3 82.5034 143.5 83.1034 145.6 83.1034C148.2 83.1034 150.2 82.6034 151.7 81.5034C153.2 80.4034 154 79.1034 154 77.3034C154 76.5034 153.8 75.8034 153.5 75.1034C153.2 74.5034 152.8 73.9034 152.4 73.5034C152 73.1034 151.3 72.7034 150.5 72.3034C149.6 71.9034 148.9 71.6034 148.2 71.4034C147.6 71.2034 146.6 70.9034 145.4 70.5034C144.2 70.1034 143.2 69.7034 142.5 69.5034C141 68.9034 139.7 68.4034 138.6 67.9034C137.5 67.4034 136.4 66.7034 135.1 65.7034C133.9 64.8034 132.9 63.6034 132.2 62.3034C131.6 60.9034 131.2 59.4034 131.2 57.7034C131.2 54.3034 132.5 51.5034 135.2 49.3034C137.9 47.1034 141.4 46.0034 145.7 46.0034C148.9 46.0034 151.7 46.6034 154.2 47.8034C156.7 48.9034 158.8 50.5034 160.3 52.4034V53.0034L156.5 57.0034H156C153.2 53.7034 149.8 52.1034 145.8 52.1034C143.6 52.1034 141.9 52.6034 140.5 53.5034C139.1 54.5034 138.4 55.7034 138.4 57.3034C138.4 58.4034 138.8 59.4034 139.6 60.2034C140.4 61.0034 141.2 61.6034 142 62.0034C142.9 62.4034 144.1 62.9034 145.8 63.4034C146 63.5034 146.8 63.7034 148.1 64.2034C149.4 64.6034 150.2 64.9034 150.6 65.1034C151 65.2034 151.7 65.5034 152.8 66.0034C153.9 66.4034 154.7 66.8034 155.1 67.1034C155.5 67.4034 156.2 67.8034 157 68.4034C157.8 68.9034 158.4 69.5034 158.8 70.1034C159.2 70.6034 159.6 71.3034 160 72.0034C160.5 72.7034 160.8 73.5034 160.9 74.3034C161 75.1034 161.1 76.1034 161.1 77.1034C161.1 80.8034 159.7 83.7034 156.8 85.9034C154.1 88.2034 150.5 89.3034 146 89.3034ZM180.7 55.7034C185.1 55.7034 188.5 56.8034 191 59.1034C193.6 61.3034 194.8 64.6034 194.8 69.0034V88.5034H188.8V84.8034C185.9 87.7034 182.3 89.2034 178.2 89.2034C174.4 89.2034 171.4 88.3034 169.1 86.4034C166.8 84.5034 165.6 82.0034 165.6 78.9034C165.6 75.7034 166.9 73.0034 169.4 71.1034C171.9 69.2034 175.2 68.1034 179.3 68.1034C182.1 68.1034 185.1 68.8034 188.2 70.1034V68.0034C188.2 66.0034 187.4 64.4034 185.9 63.1034C184.4 61.8034 182.4 61.2034 179.9 61.2034C176.5 61.2034 173.5 62.3034 170.9 64.4034H170.4L167.8 60.5034V60.0034C169.4 58.7034 171.4 57.6034 173.7 56.9034C176.2 56.1034 178.5 55.7034 180.7 55.7034ZM179.5 84.2034C181.8 84.2034 183.9 83.5034 185.6 82.2034C187.4 80.9034 188.3 79.2034 188.4 77.2034L188.3 76.8034V75.2034C185.4 73.7034 182.7 73.0034 180.1 73.0034C177.8 73.0034 175.9 73.5034 174.5 74.6034C173.1 75.7034 172.4 77.1034 172.4 78.8034C172.4 80.4034 173 81.7034 174.3 82.6034C175.7 83.7034 177.4 84.2034 179.5 84.2034ZM215.9 55.7034C220.3 55.7034 223.7 56.8034 226.2 59.1034C228.8 61.3034 230 64.6034 230 69.0034V88.5034H224V84.8034C221.1 87.7034 217.5 89.2034 213.4 89.2034C209.6 89.2034 206.6 88.3034 204.3 86.4034C202 84.5034 200.8 82.0034 200.8 78.9034C200.8 75.7034 202.1 73.0034 204.6 71.1034C207.1 69.2034 210.4 68.1034 214.5 68.1034C217.3 68.1034 220.3 68.8034 223.4 70.1034V68.0034C223.4 66.0034 222.6 64.4034 221.1 63.1034C219.6 61.8034 217.6 61.2034 215.1 61.2034C211.7 61.2034 208.7 62.3034 206.1 64.4034H205.6L203 60.5034V60.0034C204.6 58.7034 206.6 57.6034 208.9 56.9034C211.4 56.1034 213.7 55.7034 215.9 55.7034ZM214.8 84.2034C217.1 84.2034 219.2 83.5034 220.9 82.2034C222.7 80.9034 223.6 79.2034 223.7 77.2034L223.6 76.8034V75.2034C220.7 73.7034 218 73.0034 215.4 73.0034C213.1 73.0034 211.2 73.5034 209.8 74.6034C208.4 75.7034 207.7 77.1034 207.7 78.8034C207.7 80.4034 208.3 81.7034 209.6 82.6034C210.9 83.7034 212.7 84.2034 214.8 84.2034ZM253.1 89.3034C249.6 89.3034 246.4 88.6034 243.4 87.2034C240.4 85.8034 238 83.8034 236.2 81.4034V80.8034L240 76.8034H240.6C242.1 78.7034 244 80.3034 246.2 81.4034C248.4 82.5034 250.6 83.1034 252.7 83.1034C255.3 83.1034 257.3 82.6034 258.8 81.5034C260.3 80.4034 261.1 79.1034 261.1 77.3034C261.1 76.5034 260.9 75.8034 260.6 75.1034C260.3 74.5034 259.9 73.9034 259.5 73.5034C259.1 73.1034 258.4 72.7034 257.6 72.3034C256.7 71.9034 256 71.6034 255.3 71.4034C254.7 71.2034 253.7 70.9034 252.5 70.5034C251.3 70.1034 250.3 69.7034 249.6 69.5034C248.1 68.9034 246.8 68.4034 245.7 67.9034C244.6 67.4034 243.5 66.7034 242.2 65.7034C241 64.8034 240 63.6034 239.3 62.3034C238.7 60.9034 238.3 59.4034 238.3 57.7034C238.3 54.3034 239.6 51.5034 242.3 49.3034C245 47.1034 248.5 46.0034 252.8 46.0034C256 46.0034 258.8 46.6034 261.3 47.8034C263.8 48.9034 265.9 50.5034 267.4 52.4034V53.0034L263.6 57.0034H263.1C260.3 53.7034 256.9 52.1034 252.9 52.1034C250.7 52.1034 249 52.6034 247.6 53.5034C246.2 54.5034 245.5 55.7034 245.5 57.3034C245.5 58.4034 245.9 59.4034 246.7 60.2034C247.5 61.0034 248.3 61.6034 249.1 62.0034C250 62.4034 251.2 62.9034 252.9 63.4034C253.1 63.5034 253.9 63.7034 255.2 64.2034C256.5 64.6034 257.3 64.9034 257.7 65.1034C258.1 65.2034 258.8 65.5034 259.9 66.0034C261 66.4034 261.8 66.8034 262.2 67.1034C262.6 67.4034 263.3 67.8034 264.1 68.4034C264.9 69.0034 265.5 69.5034 265.9 70.1034C266.3 70.6034 266.7 71.3034 267.1 72.0034C267.6 72.7034 267.9 73.5034 268 74.3034C268.2 75.2034 268.2 76.1034 268.2 77.1034C268.2 80.8034 266.8 83.7034 263.9 85.9034C261.2 88.2034 257.5 89.3034 253.1 89.3034ZM315.7 66.6034C318 67.5034 319.8 68.8034 321.2 70.5034C322.6 72.3034 323.3 74.4034 323.3 76.8034C323.3 80.3034 321.9 83.1034 319.1 85.2034C316.3 87.3034 312.6 88.4034 308 88.4034H291.3V46.8034H307.2C311.6 46.8034 315.1 47.8034 317.5 49.7034C319.9 51.6034 321.2 54.3034 321.2 57.8034C321.2 61.8034 319.4 64.7034 315.7 66.6034ZM314.3 58.6034C314.3 56.6034 313.7 55.1034 312.4 54.1034C311.2 53.0034 309.4 52.5034 307 52.5034H298.4V64.7034H307C309.3 64.7034 311.1 64.2034 312.4 63.1034C313.7 62.0034 314.3 60.5034 314.3 58.6034ZM307.3 82.9034C310.2 82.9034 312.3 82.3034 313.9 81.2034C315.4 80.1034 316.2 78.4034 316.2 76.3034C316.2 74.3034 315.5 72.7034 314 71.5034C312.5 70.3034 310.6 69.7034 308.2 69.7034H298.4V82.9034H307.3ZM352 56.5034H359V88.5034H352.8V84.7034C350.4 87.8034 347.1 89.3034 342.9 89.3034C339.1 89.3034 336 88.1034 333.6 85.6034C331.2 83.1034 330 79.8034 330 75.8034V56.6034H337V75.6034C337 77.9034 337.7 79.8034 339 81.2034C340.3 82.6034 342.1 83.3034 344.3 83.3034C346.7 83.3034 348.5 82.6034 349.9 81.1034C351.3 79.6034 352 77.7034 352 75.2034V56.5034ZM371.7 51.1034C370.4 51.1034 369.3 50.6034 368.3 49.7034C367.4 48.7034 366.9 47.6034 366.9 46.3034C366.9 45.0034 367.4 43.8034 368.3 42.9034C369.2 42.0034 370.4 41.5034 371.7 41.5034C373 41.5034 374.2 42.0034 375.1 42.9034C376.1 43.8034 376.5 45.0034 376.5 46.3034C376.5 47.7034 376 48.8034 375.1 49.8034C374.2 50.7034 373.1 51.1034 371.7 51.1034ZM368.3 88.5034V56.5034H375.2V88.5034H368.3ZM384.7 88.5034V45.6034L391.1 44.8034L391.6 45.2034V88.4034H384.7V88.5034ZM431.6 44.8034L432.1 45.2034V88.4034H425.8V84.3034C422.9 87.5034 419.2 89.2034 414.7 89.2034C410 89.2034 406.1 87.6034 403.1 84.4034C400.1 81.2034 398.6 77.2034 398.6 72.5034C398.6 67.8034 400.1 63.8034 403.1 60.6034C406.1 57.4034 410 55.8034 414.7 55.8034C418.7 55.8034 422.1 57.1034 425.1 59.6034V45.7034L431.6 44.8034ZM415.7 83.2034C418.6 83.2034 420.9 82.3034 422.8 80.4034C424.7 78.5034 425.6 75.9034 425.6 72.5034C425.6 69.2034 424.6 66.6034 422.7 64.7034C420.8 62.8034 418.4 61.9034 415.6 61.9034C412.6 61.9034 410.2 62.9034 408.3 65.0034C406.4 67.0034 405.5 69.6034 405.5 72.6034C405.5 75.6034 406.4 78.2034 408.3 80.2034C410.3 82.2034 412.8 83.2034 415.7 83.2034ZM471.6 74.2034H446.1C446.3 77.2034 447.5 79.5034 449.4 81.2034C451.4 82.9034 453.8 83.7034 456.6 83.7034C458.5 83.7034 460.3 83.3034 462.1 82.6034C463.9 81.9034 465.4 80.8034 466.5 79.4034H467.1L470.6 82.6034V83.1034C469 85.1034 466.9 86.6034 464.3 87.7034C461.7 88.7034 459.1 89.2034 456.4 89.2034C451.6 89.2034 447.5 87.7034 444.2 84.6034C440.9 81.5034 439.2 77.5034 439.2 72.4034C439.2 67.6034 440.8 63.6034 443.9 60.4034C447 57.2034 451 55.6034 455.7 55.6034C460.3 55.6034 464.1 57.1034 467.1 60.0034C470.3 63.1034 471.8 67.0034 471.8 71.8034C471.8 72.9034 471.7 73.7034 471.6 74.2034ZM455.5 61.2034C453 61.2034 450.9 62.0034 449.2 63.4034C447.5 64.9034 446.5 66.9034 446.1 69.4034H464.9C464.6 67.0034 463.7 65.2034 462.3 63.8034C460.6 62.1034 458.3 61.2034 455.5 61.2034ZM498.2 56.8034L498.5 57.3034L496.8 62.4034L496.2 62.7034C495.4 62.2034 494.2 61.9034 492.7 61.9034C490.6 61.9034 488.9 62.7034 487.5 64.4034C486.2 66.1034 485.6 68.2034 485.6 70.8034V88.5034H478.6V56.5034H484.8V60.7034C486.9 57.4034 489.8 55.7034 493.5 55.7034C495.1 55.7034 496.7 56.1034 498.2 56.8034Z" fill="white"/>
</g>
</svg>
